<svg id="Layer_1" data-name="Layer 1" xmlns="http://www.w3.org/2000/svg" viewBox="0 0 23.53 31.69"><defs><style>.cls-1{fill:#f5f6f7;}</style></defs><path class="cls-1" d="M29.55,47.5l-7.17-7.17,6.72-6.72a5,5,0,0,0,0-7l-.42-.43a5,5,0,0,0-7,0L7.47,40.35l7.45,7.44h0L22.1,55a5,5,0,0,0,7,0l.43-.43A5,5,0,0,0,29.55,47.5Zm-2.59,5a2.35,2.35,0,0,1-3.33,0l-12-12h0l12-12a2.35,2.35,0,0,1,3.33,0h0a2.35,2.35,0,0,1,0,3.33l-8.72,8.71L27,49.15A2.35,2.35,0,0,1,27,52.48Z" transform="translate(-7.47 -24.71)"/></svg>