<svg id="Layer_1" data-name="Layer 1" xmlns="http://www.w3.org/2000/svg" viewBox="0 0 37.93 51.09"><defs><style>.cls-1{fill:#fefefe;}</style></defs><path class="cls-1" d="M43.06,42.06,31.5,30.5,42.34,19.66a8,8,0,0,0,0-11.32l-.68-.68a8,8,0,0,0-11.32,0L7.47,30.53l12,12,0,0L31.06,54.06a8,8,0,0,0,11.31,0l.69-.69A8,8,0,0,0,43.06,42.06Zm-4.17,8a3.8,3.8,0,0,1-5.37,0L14.1,30.67h0L33.52,11.24a3.8,3.8,0,0,1,5.37,0h0a3.8,3.8,0,0,1,0,5.37l-14,14.05L38.89,44.71A3.81,3.81,0,0,1,38.89,50.09Z" transform="translate(-7.47 -5.31)"/></svg>