<svg id="Layer_1" data-name="Layer 1" xmlns="http://www.w3.org/2000/svg" viewBox="0 0 37.93 51.09"><defs><style>.cls-1{fill:#fefefe;}</style></defs><path class="cls-1" d="M9.81,19.66,21.37,31.21,10.53,42.06a8,8,0,0,0,0,11.31l.69.69a8,8,0,0,0,11.31,0L45.4,31.19l-12-12,0,0L21.81,7.66a8,8,0,0,0-11.31,0l-.69.68A8,8,0,0,0,9.81,19.66Zm4.17-8a3.81,3.81,0,0,1,5.38,0L38.77,31h0L19.36,50.47a3.8,3.8,0,0,1-5.38,0h0a3.8,3.8,0,0,1,0-5.37L28,31.05,14,17A3.8,3.8,0,0,1,14,11.63Z" transform="translate(-7.47 -5.31)"/></svg>